<svg id="Layer_1" data-name="Layer 1" xmlns="http://www.w3.org/2000/svg" viewBox="0 0 1105.13 1105.14"><defs><style>.cls-1{fill:#f7d25f;}.cls-2{fill:#de6d4f;}.cls-3{fill:#54b9cd;}</style></defs><path class="cls-1" d="M999.61,739.83,760,979.4a188.6,188.6,0,0,1-23,19c-1,.68-2,1.36-2.95,2a185.88,185.88,0,0,1-102.81,31.86,181.11,181.11,0,0,1-104-31.86,184.59,184.59,0,0,1-80.17-152.33v-216A184.19,184.19,0,0,1,761.51,501.84l.08-.08Z" transform="translate(-447.07 -447.87)"/><path class="cls-2" d="M1498.25,762.31l.08.08L761.58,1499.14l-.08-.08a184.19,184.19,0,0,1-314.43-130.24V848.12a184.59,184.59,0,0,0,80.17,152.33,181.11,181.11,0,0,0,104,31.86,185.88,185.88,0,0,0,102.81-31.86c1-.67,2-1.34,3-2a189.36,189.36,0,0,0,23-19c1.51-1.45,3-2.94,4.44-4.44L999.6,739.83l0,0v-.05l107.73-107.73,64.75-64.75,11.71-11.71,53.87-53.87.08.08a184.19,184.19,0,0,1,260.48,260.49Z" transform="translate(-447.07 -447.87)"/><path class="cls-3" d="M1552.2,1368.81a184.19,184.19,0,0,1-314.43,130.24l-.08-.08a184.19,184.19,0,0,1,260.48-260.48l.08.08A183.58,183.58,0,0,1,1552.2,1368.81Z" transform="translate(-447.07 -447.87)"/></svg>