<svg id="Capa_1" enable-background="new 0 0 512 512" height="512" viewBox="0 0 512 512" width="512" xmlns="http://www.w3.org/2000/svg"><g><path d="m280.28 197.18c48.955 0 96.53-37.606 96.53-100.65 0-53.23-43.31-96.53-96.53-96.53h-183.7c-49.29 0-96.53 37.898-96.53 100.65 0 48.13 35.4 88.14 81.53 95.37v64.15c0 13.706 17.031 20.277 26.2 9.97l65-72.96zm-.4-117.17c10.27 0 18.59 8.32 18.59 18.58s-8.32 18.58-18.59 18.58c-10.26 0-18.58-8.32-18.58-18.58s8.32-18.58 18.58-18.58zm-182.91 37.16c-10.26 0-18.58-8.32-18.58-18.58s8.32-18.58 18.58-18.58c10.27 0 18.59 8.32 18.59 18.58s-8.32 18.58-18.59 18.58zm91.46-37.16c10.26 0 18.58 8.32 18.58 18.58s-8.32 18.58-18.58 18.58-18.58-8.32-18.58-18.58 8.32-18.58 18.58-18.58z"/><path d="m415.42 236.83h-183.7c-53.22 0-96.53 43.31-96.53 96.54 0 62.173 46.78 100.65 96.53 100.65h107.5l65 72.96c9.09 10.219 26.2 3.813 26.2-9.98v-64.15c46.13-7.23 81.53-47.24 81.53-95.37 0-62.04-46.655-100.65-96.53-100.65zm-183.3 117.179c-10.27 0-18.59-8.32-18.59-18.59 0-10.26 8.32-18.58 18.59-18.58 10.26 0 18.58 8.32 18.58 18.58 0 10.27-8.32 18.59-18.58 18.59zm91.45 0c-10.26 0-18.58-8.32-18.58-18.59 0-10.26 8.32-18.58 18.58-18.58s18.58 8.32 18.58 18.58c0 10.27-8.32 18.59-18.58 18.59zm91.46 0c-10.27 0-18.59-8.32-18.59-18.59 0-10.26 8.32-18.58 18.59-18.58 10.26 0 18.58 8.32 18.58 18.58 0 10.27-8.32 18.59-18.58 18.59z"/></g></svg>